#N canvas 350 115 622 537 10;
#X msg 43 192 listen \$1;
#X obj 44 50 inlet;
#X obj 256 274 list tosymbol;
#X obj 256 299 list fromsymbol;
#X obj 257 377 list tosymbol;
#X obj 257 421 list prepend set;
#X obj 257 516 list tosymbol;
#X obj 257 441 list trim;
#X obj 283 350 list length;
#X obj 257 464 t b a;
#X obj 256 323 t a a;
#X obj 43 239 t a a;
#X obj 43 270 list split;
#X obj 41 466 oscparse;
#X obj 41 599 list prepend;
#X obj 43 301 route 0;
#X obj 43 332 route 0;
#X obj 43 363 route 0;
#X obj 41 656 outlet;
#X obj 227 658 outlet;
#X text 119 326 <(2);
#X text 368 204 <(1);
#X obj 569 122 bng 15 250 50 0 empty empty empty 17 7 0 10 -262144
-1 -1;
#X text 418 83 v1 supporte un seul float;
#X text 419 68 v2 support adaptatif ?;
#X text 418 83 v1 supporte un seul float;
#X text 565 239 enlever les slash;
#X text 421 177 2) s'assurer de ne plus avoir de zero qui commence
la liste de sorte a en ajouter seulement 3 et un 47 (slash);
#X text 419 131 1) list tosymbol a la particularite d elaguer tout
ce qui viens apres un espace utile pour composer le radical du message
OSC;
#X obj 42 399 route 0;
#X obj 257 399 route symbol;
#X obj 257 492 oscformat;
#X obj 258 542 route symbol;
#X obj 286 658 outlet;
#X obj 43 215 netreceive -u -b;
#X obj 172 43 loadbang;
#X obj 172 66 list append \$1;
#X obj 151 44 bng 15 250 50 0 empty empty empty 17 7 0 10 -262144 -1
-1;
#X obj 172 89 route 0;
#X obj 41 490 list trim;
#X obj 41 631 list trim;
#X obj 96 423 list prepend 47 104 105 0;
#X obj 42 514 route hi;
#X text 18 21 pd-osc/oReceive;
#X obj 42 541 t a a;
#X obj 257 565 t a a;
#X msg 48 104 0, f 6;
#X obj 46 164 t f 0;
#X connect 0 0 34 0;
#X connect 1 0 47 0;
#X connect 2 0 3 0;
#X connect 3 0 10 0;
#X connect 4 0 30 0;
#X connect 5 0 7 0;
#X connect 6 0 32 0;
#X connect 7 0 9 0;
#X connect 8 0 12 1;
#X connect 9 0 31 0;
#X connect 9 1 31 0;
#X connect 10 0 4 0;
#X connect 10 1 8 0;
#X connect 11 0 12 0;
#X connect 11 1 2 0;
#X connect 12 1 15 0;
#X connect 13 0 39 0;
#X connect 14 0 40 0;
#X connect 15 0 16 0;
#X connect 15 1 41 0;
#X connect 16 0 17 0;
#X connect 16 1 41 0;
#X connect 17 0 29 0;
#X connect 17 1 41 0;
#X connect 29 0 41 0;
#X connect 29 1 41 0;
#X connect 30 0 5 0;
#X connect 31 0 6 0;
#X connect 32 0 45 0;
#X connect 34 0 11 0;
#X connect 35 0 36 0;
#X connect 36 0 38 0;
#X connect 37 0 36 0;
#X connect 38 1 47 0;
#X connect 39 0 42 0;
#X connect 40 0 18 0;
#X connect 41 0 13 0;
#X connect 42 0 44 0;
#X connect 44 0 14 0;
#X connect 44 1 19 0;
#X connect 45 0 14 1;
#X connect 45 1 33 0;
#X connect 46 0 47 0;
#X connect 47 0 0 0;
#X connect 47 1 0 0;
