#N canvas 647 252 584 481 10;
#X obj 37 67 list split 1;
#X obj 86 143 list prepend set;
#X obj 14 104 t b l;
#X obj 36 295 outlet;
#X obj 86 171 list trim;
#X obj 35 240 list prepend send;
#X obj 35 263 list trim;
#X obj 35 211 oscformat;
#X obj 37 9 inlet;
#X obj 275 18 inlet;
#X obj 274 161 list prepend connect;
#X obj 274 187 list trim;
#X obj 511 37 inlet;
#X obj 15 142 list;
#X obj 15 171 list trim;
#X obj 273 298 netsend -u -b;
#X obj 320 97 list trim;
#X obj 320 44 loadbang;
#X obj 320 122 route 0;
#X obj 320 72 list append \$1 \$2;
#X obj 404 43 bng 15 250 50 0 empty empty empty 17 7 0 10 -262144 -1
-1;
#X text 85 8 list input;
#X obj 37 34 list trim;
#X obj 273 332 outlet;
#X text 330 19 connect to;
#X connect 0 0 2 0;
#X connect 0 1 13 1;
#X connect 1 0 4 0;
#X connect 2 0 13 0;
#X connect 2 1 1 0;
#X connect 4 0 7 0;
#X connect 5 0 6 0;
#X connect 6 0 3 0;
#X connect 6 0 15 0;
#X connect 7 0 5 0;
#X connect 8 0 22 0;
#X connect 9 0 10 0;
#X connect 10 0 11 0;
#X connect 11 0 15 0;
#X connect 12 0 15 0;
#X connect 13 0 14 0;
#X connect 14 0 7 0;
#X connect 15 0 23 0;
#X connect 16 0 18 0;
#X connect 17 0 19 0;
#X connect 18 1 10 0;
#X connect 19 0 16 0;
#X connect 20 0 19 0;
#X connect 22 0 0 0;
