#N canvas 637 158 647 516 10;
#X msg 87 63 listen 0;
#X msg 12 63 listen \$1;
#X obj 12 33 inlet;
#X obj 226 178 list tosymbol;
#X obj 226 203 list fromsymbol;
#X obj 227 281 list tosymbol;
#X obj 227 325 list prepend set;
#X obj 227 420 list tosymbol;
#X obj 227 344 list trim;
#X obj 253 254 list length;
#X obj 227 368 t b a;
#X obj 226 227 t a a;
#X obj 12 133 t a a;
#X obj 12 164 list split;
#X obj 10 360 oscparse;
#X obj 10 493 list prepend;
#X obj 12 195 route 0;
#X obj 12 226 route 0;
#X obj 12 257 route 0;
#X obj 227 469 t a a;
#X obj 10 550 outlet;
#X obj 233 516 send;
#X obj 142 516 outlet;
#X text 88 220 <(2);
#X text 336 176 <(1);
#X obj 537 94 bng 15 250 50 0 empty empty empty 17 7 0 10 -262144 -1
-1;
#X text 386 55 v1 supporte un seul float;
#X text 387 40 v2 support adaptatif ?;
#X text 386 55 v1 supporte un seul float;
#X obj 433 335 oscformat;
#X obj 433 356 oscparse;
#X obj 433 384 print post;
#X obj 428 211 list trim;
#X obj 429 236 list split 1;
#X obj 432 291 list;
#X obj 431 257 t b a;
#X obj 467 284 list prepend set;
#X obj 467 307 list trim;
#X text 533 211 enlever les slash;
#X text 389 149 2) s'assurer de ne plus avoir de zero qui commence
la liste de sorte a en ajouter seulement 3 et un 47 (slash);
#X text 387 103 1) list tosymbol a la particularite d elaguer tout
ce qui viens apres un espace utile pour composer le radical du message
OSC;
#X obj 11 293 route 0;
#X obj 227 303 route symbol;
#X obj 227 396 oscformat;
#X obj 228 446 route symbol;
#X obj 274 513 outlet;
#X obj 12 90 netreceive -u -b;
#X obj 200 51 loadbang;
#X obj 200 88 list append \$1;
#X obj 278 58 bng 15 250 50 0 empty empty empty 17 7 0 10 -262144 -1
-1;
#X obj 200 110 route 0;
#X obj 11 435 t a a;
#X obj 405 429 text define osc;
#X obj 10 384 list trim;
#X obj 70 547 spigot;
#X obj 115 548 tgl 15 0 empty empty empty 17 7 0 10 -262144 -1 -1 1
1;
#X obj 70 593 send print;
#X obj 70 570 list prepend oscRec;
#X obj 10 525 list trim;
#X obj 65 317 list prepend 47 104 105 0;
#X obj 11 408 route hi;
#X connect 0 0 46 0;
#X connect 1 0 46 0;
#X connect 2 0 1 0;
#X connect 3 0 4 0;
#X connect 4 0 11 0;
#X connect 5 0 42 0;
#X connect 6 0 8 0;
#X connect 7 0 44 0;
#X connect 8 0 10 0;
#X connect 9 0 13 1;
#X connect 10 0 43 0;
#X connect 10 1 43 0;
#X connect 11 0 5 0;
#X connect 11 1 9 0;
#X connect 12 0 13 0;
#X connect 12 1 3 0;
#X connect 13 1 16 0;
#X connect 14 0 53 0;
#X connect 15 0 58 0;
#X connect 16 0 17 0;
#X connect 16 1 59 0;
#X connect 17 0 18 0;
#X connect 17 1 59 0;
#X connect 18 0 41 0;
#X connect 18 1 59 0;
#X connect 19 0 15 1;
#X connect 19 1 21 1;
#X connect 19 1 45 0;
#X connect 29 0 30 0;
#X connect 30 0 31 0;
#X connect 32 0 33 0;
#X connect 33 0 35 0;
#X connect 33 1 34 1;
#X connect 34 0 29 0;
#X connect 35 0 34 0;
#X connect 35 1 36 0;
#X connect 36 0 37 0;
#X connect 37 0 29 0;
#X connect 41 0 59 0;
#X connect 41 1 59 0;
#X connect 42 0 6 0;
#X connect 43 0 7 0;
#X connect 44 0 19 0;
#X connect 46 0 12 0;
#X connect 47 0 48 0;
#X connect 48 0 50 0;
#X connect 49 0 48 0;
#X connect 50 1 1 0;
#X connect 51 0 15 0;
#X connect 51 1 21 0;
#X connect 51 1 22 0;
#X connect 53 0 60 0;
#X connect 54 0 57 0;
#X connect 55 0 54 1;
#X connect 57 0 56 0;
#X connect 58 0 20 0;
#X connect 58 0 54 0;
#X connect 59 0 14 0;
#X connect 60 0 51 0;
