#N canvas 747 88 536 506 10;
#X obj 22 -5 inlet;
#X obj 308 368 outlet;
#X obj 402 -3 inlet;
#X obj 21 380 outlet;
#N canvas 723 269 450 300 dispatch 0;
#X obj 29 137 until;
#X obj 31 186 t f f;
#X obj 29 161 f;
#X obj 56 209 + 1;
#X obj 29 115 t f b;
#X msg 71 137 0;
#X obj 57 282 list split 1;
#X obj 58 336 list;
#X obj 58 364 list trim;
#X obj 93 310 t b a;
#X obj 30 257 t a a;
#X obj 29 94 text size \$1;
#X obj 29 39 inlet;
#X obj 31 236 text get \$1;
#X obj 122 426 outlet;
#X obj 58 424 outlet;
#X obj 30 456 outlet;
#X connect 0 0 2 0;
#X connect 1 0 13 0;
#X connect 1 1 3 0;
#X connect 2 0 1 0;
#X connect 3 0 2 1;
#X connect 4 0 0 0;
#X connect 4 1 5 0;
#X connect 5 0 2 1;
#X connect 6 0 9 0;
#X connect 6 1 7 1;
#X connect 7 0 8 0;
#X connect 8 0 15 0;
#X connect 9 0 7 0;
#X connect 9 1 14 0;
#X connect 10 0 16 0;
#X connect 10 1 6 0;
#X connect 11 0 4 0;
#X connect 12 0 11 0;
#X connect 13 0 10 0;
#X restore 441 329 pd dispatch;
#X obj 303 54 t b b;
#X obj 334 278 list prepend read;
#X obj 307 161 symbol \$1;
#X obj 306 201 combine file .txt;
#X obj 334 315 list trim;
#X msg 98 0 load;
#X msg 146 7 save;
#X obj 18 123 t b b;
#X obj 18 204 symbol \$1;
#X obj 17 244 combine file .txt;
#X obj 17 278 list prepend write;
#X msg 125 158 save;
#X obj 129 195 send \$1;
#X obj 97 -20 loadbang;
#X obj 18 166 del 100;
#X obj 466 361 send;
#X obj 20 70 route save load;
#X msg 451 116 1;
#X obj 429 161 spigot;
#X obj 401 30 t b a;
#X msg 401 114 0;
#X obj 307 247 t b a;
#X obj 430 187 t b;
#X obj 432 407 print dispatch;
#X obj 430 240 send \$1;
#X msg 432 214 recall;
#X obj 45 20 del 100;
#X connect 0 0 21 0;
#X connect 2 0 24 0;
#X connect 4 0 28 0;
#X connect 4 1 20 0;
#X connect 4 2 20 1;
#X connect 5 0 7 0;
#X connect 5 1 22 0;
#X connect 6 0 9 0;
#X connect 7 0 8 0;
#X connect 8 0 26 0;
#X connect 9 0 1 0;
#X connect 10 0 31 0;
#X connect 11 0 21 0;
#X connect 12 0 19 0;
#X connect 12 1 16 0;
#X connect 13 0 14 0;
#X connect 14 0 15 0;
#X connect 15 0 9 0;
#X connect 16 0 17 0;
#X connect 18 0 10 0;
#X connect 19 0 13 0;
#X connect 21 0 12 0;
#X connect 21 1 5 0;
#X connect 22 0 23 1;
#X connect 23 0 27 0;
#X connect 24 0 25 0;
#X connect 24 1 23 0;
#X connect 25 0 23 1;
#X connect 26 0 1 0;
#X connect 26 1 6 0;
#X connect 27 0 30 0;
#X connect 30 0 29 0;
#X connect 31 0 21 0;
